<?xml version="1.0" encoding="iso-8859-1"?>
<!-- Generator: Adobe Illustrator 19.1.0, SVG Export Plug-In . SVG Version: 6.00 Build 0)  -->
<svg version="1.1" id="Capa_1" xmlns="http://www.w3.org/2000/svg" xmlns:xlink="http://www.w3.org/1999/xlink" x="0px" y="0px"
	 viewBox="0 0 513.32 513.32" style="enable-background:new 0 0 513.32 513.32;" xml:space="preserve">
<g>
	<g>
		<g>
			<polygon points="329.38,149.718 429.906,149.718 370.018,209.605 399.962,239.55 513.32,128.33 399.962,17.11 370.018,47.055 
				429.906,106.942 312.27,106.942 220.3,198.911 250.244,228.855 			"/>
			<polygon points="370.018,303.715 429.906,363.602 329.38,363.602 72.72,106.942 0,106.942 0,149.718 55.61,149.718 
				162.551,256.66 55.61,363.602 0,363.602 0,406.378 72.72,406.378 192.495,286.603 312.27,406.378 429.906,406.378 
				370.018,466.265 399.962,496.21 513.32,384.99 399.962,273.77 			"/>
		</g>
	</g>
</g>
<g>
</g>
<g>
</g>
<g>
</g>
<g>
</g>
<g>
</g>
<g>
</g>
<g>
</g>
<g>
</g>
<g>
</g>
<g>
</g>
<g>
</g>
<g>
</g>
<g>
</g>
<g>
</g>
<g>
</g>
</svg>
